<svg width="24" height="24" viewBox="0 0 24 24" fill="none" xmlns="http://www.w3.org/2000/svg">
<g clip-path="url(#clip0_254_20)">
<path d="M12 0C14.386 0.00316505 16.6733 0.952393 18.3605 2.63953C20.0476 4.32668 20.9968 6.61402 21 9C21 15.4613 12.615 23.5538 12.2587 23.895C12.1895 23.9623 12.0966 24 12 24C11.9034 24 11.8105 23.9623 11.7413 23.895C11.385 23.5538 3 15.4613 3 9C3.00316 6.61402 3.95239 4.32668 5.63954 2.63953C7.32668 0.952393 9.61402 0.00316505 12 0V0ZM12 13.125C12.8158 13.125 13.6134 12.8831 14.2917 12.4298C14.9701 11.9766 15.4988 11.3323 15.811 10.5786C16.1232 9.82482 16.2049 8.99542 16.0457 8.19525C15.8866 7.39508 15.4937 6.66008 14.9168 6.08318C14.3399 5.50629 13.6049 5.11342 12.8047 4.95426C12.0046 4.7951 11.1752 4.87679 10.4214 5.189C9.66769 5.50121 9.02345 6.02992 8.57019 6.70827C8.11693 7.38663 7.875 8.18415 7.875 9C7.87566 10.0938 8.31046 11.1426 9.08391 11.9161C9.85735 12.6895 10.9062 13.1243 12 13.125Z" fill="white"/>
</g>
<defs>
<clipPath id="clip0_254_20">
<rect width="24" height="24" fill="white" transform="matrix(-1 0 0 1 24 0)"/>
</clipPath>
</defs>
</svg>
