<svg width="54" height="54" viewBox="0 0 54 54" fill="none" xmlns="http://www.w3.org/2000/svg">
<g clip-path="url(#clip0_222_833)">
<path d="M27 54C41.9117 54 54 41.9117 54 27C54 12.0883 41.9117 0 27 0C12.0883 0 0 12.0883 0 27C0 41.9117 12.0883 54 27 54Z" fill="#29A71A"/>
<path d="M38.9045 15.0955C36.0954 12.2583 32.3649 10.5184 28.3859 10.1895C24.4069 9.86063 20.4413 10.9645 17.2045 13.3019C13.9677 15.6394 11.6727 19.0566 10.7335 22.9371C9.79434 26.8176 10.2728 30.906 12.0825 34.4649L10.306 43.0896C10.2876 43.1754 10.287 43.2641 10.3045 43.3502C10.3219 43.4362 10.3569 43.5178 10.4073 43.5897C10.481 43.6988 10.5864 43.7828 10.7092 43.8305C10.832 43.8782 10.9664 43.8873 11.0945 43.8566L19.5474 41.8531C23.0962 43.617 27.1558 44.0646 31.0037 43.1164C34.8516 42.1681 38.2383 39.8854 40.5612 36.6745C42.8841 33.4636 43.9924 29.5327 43.6891 25.5812C43.3857 21.6298 41.6903 17.9142 38.9045 15.0955ZM36.269 36.1309C34.3253 38.0691 31.8225 39.3485 29.1132 39.7888C26.4039 40.2292 23.6248 39.8083 21.1674 38.5855L19.9892 38.0025L14.807 39.2298L14.8224 39.1653L15.8962 33.9494L15.3194 32.8111C14.0638 30.3452 13.6209 27.545 14.0541 24.8119C14.4873 22.0788 15.7744 19.5529 17.731 17.596C20.1896 15.1382 23.5236 13.7575 27 13.7575C30.4764 13.7575 33.8104 15.1382 36.269 17.596C36.2899 17.62 36.3124 17.6426 36.3365 17.6635C38.7645 20.1276 40.12 23.4517 40.1074 26.9111C40.0947 30.3705 38.715 33.6846 36.269 36.1309Z" fill="white"/>
<path d="M35.8089 32.3049C35.1737 33.3051 34.1704 34.5293 32.9094 34.8331C30.7003 35.3669 27.31 34.8515 23.0912 30.9181L23.0391 30.872C19.3296 27.4326 18.3662 24.57 18.5994 22.2995C18.7283 21.0109 19.8021 19.845 20.7073 19.0841C20.8504 18.962 21.02 18.875 21.2028 18.8302C21.3855 18.7854 21.5761 18.7839 21.7595 18.826C21.9429 18.868 22.1139 18.9524 22.2588 19.0723C22.4037 19.1922 22.5186 19.3444 22.5942 19.5167L23.9595 22.5849C24.0483 22.7838 24.0811 23.0032 24.0547 23.2194C24.0282 23.4356 23.9433 23.6405 23.8092 23.8122L23.1189 24.7081C22.9707 24.8931 22.8813 25.1181 22.8622 25.3544C22.8431 25.5906 22.895 25.8271 23.0115 26.0335C23.3981 26.7116 24.3246 27.7088 25.3525 28.6323C26.5061 29.6755 27.7856 30.6297 28.5956 30.9549C28.8123 31.0434 29.0506 31.065 29.2797 31.0169C29.5089 30.9688 29.7183 30.8531 29.8811 30.6849L30.6819 29.878C30.8364 29.7256 31.0286 29.6169 31.2388 29.563C31.449 29.5091 31.6697 29.5119 31.8785 29.5711L35.1216 30.4916C35.3005 30.5465 35.4645 30.6415 35.601 30.7695C35.7375 30.8975 35.8429 31.055 35.9093 31.2299C35.9756 31.4049 36.001 31.5927 35.9836 31.779C35.9662 31.9654 35.9064 32.1452 35.8089 32.3049Z" fill="white"/>
</g>
<defs>
<clipPath id="clip0_222_833">
<rect width="54" height="54" fill="white"/>
</clipPath>
</defs>
</svg>
